<?xml version="1.0" ?><!DOCTYPE svg  PUBLIC '-//W3C//DTD SVG 1.1//EN'  'http://www.w3.org/Graphics/SVG/1.1/DTD/svg11.dtd'><svg height="512px" style="enable-background:new 0 0 512 512;" version="1.1" viewBox="0 0 512 512" width="512px" xml:space="preserve" xmlns="http://www.w3.org/2000/svg" xmlns:xlink="http://www.w3.org/1999/xlink"><g id="comp_x5F_91-discord"><g><g><g><path d="M447.249,82.455V474.57c-55.065-48.661-37.454-32.553-101.418-92.018L350,422.987H109.557      c-24.698,0-44.806-20.106-44.806-45.026V82.455c0-24.917,20.107-45.025,44.806-45.025H402.44      C427.14,37.43,447.249,57.538,447.249,82.455z" style="fill:#8A9CFE;"/><g><path d="M447.251,484.57c-2.395,0-4.76-0.859-6.624-2.507c-8.759-7.74-15.678-13.841-21.379-18.867       c-26.009-22.932-26.769-23.603-60.74-55.199l1.439,13.965c0.29,2.815-0.626,5.622-2.522,7.724       c-1.896,2.103-4.594,3.302-7.425,3.302H109.557c-30.22,0-54.806-24.685-54.806-55.026V82.455       c0-30.341,24.586-55.025,54.806-55.025H402.44c30.222,0,54.809,24.684,54.809,55.025V474.57c0,3.933-2.305,7.5-5.891,9.116       C450.042,484.28,448.642,484.57,447.251,484.57z M345.828,372.553c2.475,0,4.92,0.917,6.812,2.676l16.336,15.192       c36.909,34.329,36.909,34.329,63.499,57.773c1.504,1.325,3.091,2.726,4.774,4.21V82.455c0-19.313-15.615-35.025-34.809-35.025       H109.557c-19.192,0-34.806,15.712-34.806,35.025v295.506c0,19.313,15.614,35.026,34.806,35.026h229.359l-3.032-29.409       c-0.427-4.144,1.759-8.118,5.487-9.976C342.787,372.896,344.313,372.553,345.828,372.553z" style="fill:#6875BF;"/></g></g><g><path d="M353.481,162.233c-31.474-23.605-61.418-22.95-61.418-22.95l-3.06,3.498      c37.157,11.365,54.425,27.758,54.425,27.758c-51.921-28.456-112.91-28.46-163.273-6.338c-8.088,3.715-12.896,6.338-12.896,6.338      s18.142-17.267,57.485-28.632l-2.185-2.624c0,0-29.945-0.655-61.419,22.95c0,0-31.474,57.047-31.474,127.426      c0,0,18.361,31.692,66.663,33.223c0,0,8.088-9.834,14.645-18.142c-27.759-8.306-38.249-25.789-38.249-25.789      c3.215,2.248,8.517,5.168,8.961,5.463c36.892,20.662,89.295,27.43,136.388,7.65c7.648-2.841,16.174-6.995,25.135-12.896      c0,0-10.929,17.924-39.562,26.01c6.559,8.305,14.427,17.703,14.427,17.703c48.304-1.53,66.881-33.223,66.881-33.223      C384.955,219.28,353.481,162.233,353.481,162.233z M216.438,269.333c-12.24,0-22.295-10.928-22.295-24.262      c0-13.333,9.836-24.261,22.295-24.261c12.458,0,22.513,10.928,22.294,24.261C238.732,258.405,228.896,269.333,216.438,269.333z       M296.216,269.333c-12.239,0-22.294-10.928-22.294-24.262c0-13.333,9.836-24.261,22.294-24.261      c12.459,0,22.295,10.928,22.295,24.261C318.511,258.405,308.675,269.333,296.216,269.333z" style="fill:#FDFDFD;"/></g></g></g></g><g id="Layer_1"/></svg>