<?xml version="1.0" standalone="no"?>
<!DOCTYPE svg PUBLIC "-//W3C//DTD SVG 20010904//EN"
 "http://www.w3.org/TR/2001/REC-SVG-20010904/DTD/svg10.dtd">
<svg version="1.0" xmlns="http://www.w3.org/2000/svg"
 width="810.000000pt" height="810.000000pt" viewBox="0 0 810.000000 810.000000"
 preserveAspectRatio="xMidYMid meet">
<metadata>
Created by potrace 1.14, written by Peter Selinger 2001-2017
</metadata>
<g transform="translate(0.000000,810.000000) scale(0.100000,-0.100000)"
fill="#000000" stroke="none">
<path d="M4942 8023 c-24 -8 -61 -32 -81 -52 -33 -31 -44 -54 -76 -156 -20
-66 -44 -133 -52 -149 -14 -28 -16 -28 -71 -22 -145 18 -219 20 -522 20 -283
1 -437 -5 -506 -18 -10 -2 -41 -7 -69 -10 -75 -10 -288 -54 -395 -82 -354 -92
-753 -264 -1060 -458 -488 -307 -710 -514 -868 -807 -47 -86 -88 -210 -74
-223 3 -3 -1 -6 -10 -6 -16 0 -46 -32 -66 -70 -16 -33 -81 -263 -90 -320 -9
-60 -9 -292 1 -355 4 -27 9 -65 12 -83 2 -18 7 -51 10 -72 3 -22 8 -59 11 -82
3 -24 7 -54 9 -68 2 -14 7 -50 10 -80 4 -30 9 -63 10 -72 2 -9 6 -41 9 -70 4
-29 8 -64 10 -78 6 -32 12 -74 26 -176 6 -44 12 -89 14 -100 2 -10 7 -48 12
-84 4 -36 8 -67 9 -70 1 -3 5 -43 10 -90 5 -47 9 -87 10 -90 1 -3 5 -34 9 -70
5 -36 10 -72 11 -81 2 -9 6 -40 10 -70 3 -30 8 -61 10 -69 2 -8 6 -44 9 -80 3
-36 8 -74 10 -85 2 -11 7 -51 11 -88 3 -37 8 -76 9 -85 2 -9 7 -44 11 -77 4
-32 8 -66 10 -75 1 -8 6 -40 9 -71 4 -31 8 -65 10 -75 2 -11 7 -44 10 -75 4
-31 8 -65 10 -75 6 -31 18 -116 21 -154 3 -32 10 -89 20 -150 2 -14 7 -47 10
-75 3 -27 7 -61 10 -75 2 -14 6 -52 10 -85 14 -130 21 -162 40 -185 14 -17 23
-52 31 -113 3 -23 7 -52 10 -64 2 -13 7 -62 9 -110 3 -49 10 -119 16 -158 27
-172 130 -408 248 -567 45 -61 171 -186 281 -279 143 -121 452 -290 750 -411
41 -16 89 -36 105 -43 17 -7 66 -28 110 -45 82 -32 274 -113 425 -180 47 -21
166 -70 265 -109 99 -40 205 -84 235 -98 130 -61 93 -65 348 41 125 52 251
104 281 116 30 11 74 30 97 41 24 10 45 19 47 19 4 0 377 157 452 190 11 4 76
32 145 60 69 29 131 57 139 64 8 6 17 10 20 9 23 -6 349 161 466 240 133 89
206 150 342 285 106 104 129 133 171 214 27 51 58 109 69 128 11 19 18 40 16
47 -3 7 11 38 29 70 91 156 141 309 173 523 7 50 17 115 21 135 2 10 6 37 9
60 4 22 8 51 10 65 6 36 44 288 50 330 3 19 10 60 15 90 5 30 12 77 15 104 3
27 7 51 9 55 2 3 7 31 10 61 3 30 8 65 10 76 5 25 10 58 26 169 18 125 33 225
35 235 1 3 5 37 9 75 5 39 10 79 12 89 2 11 8 56 14 100 6 45 13 92 15 106 2
14 7 48 10 75 4 28 8 61 10 75 2 14 7 45 10 70 3 25 8 56 10 70 2 14 6 45 10
70 3 25 8 61 10 80 3 19 8 53 11 75 3 22 7 54 10 70 2 17 6 50 9 75 3 25 8 56
10 70 2 14 7 45 10 70 3 25 10 77 15 115 5 39 12 95 15 125 3 30 8 71 10 90 2
19 7 58 9 85 3 28 10 88 16 135 5 47 12 108 15 135 3 28 8 66 10 85 19 143 15
351 -9 455 -14 64 -20 85 -36 135 -10 30 -31 85 -48 122 -17 37 -38 82 -46
100 -82 179 -285 394 -561 595 -186 134 -399 266 -565 348 -154 77 -173 97
-185 191 -4 27 -13 94 -21 148 -8 55 -14 103 -14 107 0 4 -6 14 -14 22 -14 13
-17 25 -32 132 -11 79 -12 83 -31 115 -22 38 -80 61 -167 64 -61 2 -71 0 -118
-30 -29 -19 -60 -47 -71 -64 l-20 -31 -15 23 c-26 39 -66 79 -92 93 -42 22
-120 26 -168 8z"/>
</g>
</svg>
